<svg xmlns="http://www.w3.org/2000/svg" width="20" height="20" viewBox="0 0 20 20">
  <g id="project" transform="translate(0)">
    <path id="Path_2007" data-name="Path 2007" d="M152,92h10.045a1,1,0,0,0,0-2H152a1,1,0,0,0,0,2Zm0,0" transform="translate(-147.368 -86.638)" fill="#132a9f"/>
    <path id="Path_2008" data-name="Path 2008" d="M17,1.687,15.313,3.373V.586A.586.586,0,0,0,14.727,0H4.1a.588.588,0,0,0-.414.172L.172,3.687A.589.589,0,0,0,0,4.1V17.07A2.933,2.933,0,0,0,2.93,20h11.8a2.933,2.933,0,0,0,2.93-2.93V15.9a.586.586,0,0,0-.586-.586H15.313V8.345l4.173-4.173A1.758,1.758,0,0,0,17,1.687ZM3.516,2V3.516H2ZM4.688,15.9V17.07a1.758,1.758,0,0,1-3.516,0V4.687H4.1A.586.586,0,0,0,4.688,4.1V1.172h9.454V4.545L12.827,5.859H2.93a.586.586,0,1,0,0,1.172h8.725L10.484,8.2H2.93a.586.586,0,1,0,0,1.172H9.312L8.684,10a.586.586,0,0,0-.141.229l-.105.315H2.93a.586.586,0,1,0,0,1.172H8.047l-.289.868-.3.3H2.93a.586.586,0,1,0,0,1.172H7.615a.614.614,0,0,0,.5-.172l.476-.476,2.355-.785a.587.587,0,0,0,.229-.141l2.971-2.971v5.8H5.274a.586.586,0,0,0-.586.586Zm6.352-4.937-.6.6L9.2,11.976l.414-1.243.6-.6Zm5.445,5.523v.586a1.76,1.76,0,0,1-1.758,1.758H5.273A2.915,2.915,0,0,0,5.86,17.07v-.586Zm.929-11.9-5.546,5.546L11.04,9.3l5.546-5.545Zm1.243-1.243-.415.415-.829-.829.414-.415a.586.586,0,0,1,.829.829Zm0,0" fill="#132a9f"/>
  </g>
</svg>
