<svg id="Component_14_1" data-name="Component 14 – 1" xmlns="http://www.w3.org/2000/svg" width="16" height="16" viewBox="0 0 16 16">
  <g id="Ellipse_10" data-name="Ellipse 10" fill="#fff" stroke="#228205" stroke-width="1">
    <circle cx="8" cy="8" r="8" stroke="none"/>
    <circle cx="8" cy="8" r="7.5" fill="none"/>
  </g>
  <g id="writing" transform="translate(-21.595 4.625)">
    <g id="Group_241" data-name="Group 241" transform="translate(26.57)">
      <g id="Group_240" data-name="Group 240">
        <path id="Path_2053" data-name="Path 2053" d="M109.7,200.264a.264.264,0,0,0-.264-.264h-2.716a.264.264,0,0,0,0,.527h2.716A.264.264,0,0,0,109.7,200.264Z" transform="translate(-105.406 -197.363)" fill="#228205"/>
        <path id="Path_2054" data-name="Path 2054" d="M106.723,280a.264.264,0,0,0,0,.527h1.649a.264.264,0,1,0,0-.527Z" transform="translate(-105.406 -276.309)" fill="#228205"/>
        <path id="Path_2055" data-name="Path 2055" d="M28.507,6.223h-.882A.528.528,0,0,1,27.1,5.7V1.055a.528.528,0,0,1,.527-.527h3.242a.528.528,0,0,1,.527.527V2.676a.264.264,0,1,0,.527,0V1.055A1.056,1.056,0,0,0,30.866,0H27.625A1.056,1.056,0,0,0,26.57,1.055V5.7A1.056,1.056,0,0,0,27.625,6.75h.882a.264.264,0,0,0,0-.527Z" transform="translate(-26.57)" fill="#228205"/>
        <path id="Path_2056" data-name="Path 2056" d="M246.416,272.255a.792.792,0,0,0-1.118,0L243.85,273.7a.264.264,0,0,0-.066.11l-.315,1.038a.264.264,0,0,0,.323.331l1.064-.295a.264.264,0,0,0,.116-.068l1.445-1.442A.792.792,0,0,0,246.416,272.255Zm-1.768,2.138-.535.148.157-.516.977-.975.373.373Zm1.4-1.393-.051.051-.373-.373.051-.051a.264.264,0,0,1,.373.373Z" transform="translate(-240.598 -268.438)" fill="#228205"/>
        <path id="Path_2057" data-name="Path 2057" d="M109.439,120h-2.716a.264.264,0,0,0,0,.527h2.716a.264.264,0,0,0,0-.527Z" transform="translate(-105.406 -118.418)" fill="#228205"/>
      </g>
    </g>
  </g>
</svg>
