<svg xmlns="http://www.w3.org/2000/svg" width="90.82" height="90.741" viewBox="0 0 90.82 90.741">
  <g id="Group_300" data-name="Group 300" transform="translate(-149.59 -142)">
    <g id="Group_299" data-name="Group 299">
      <g id="brands" transform="translate(145.61 137.912)">
        <g id="Group_298" data-name="Group 298">
          <g id="Group_275" data-name="Group 275" transform="translate(4.895 20.832)">
            <g id="Group_270" data-name="Group 270" transform="translate(0 7.187)">
              <path id="Path_2074" data-name="Path 2074" d="M95.469,73.437v47.224a3.659,3.659,0,0,1-4.136,3.63c-6.154-.81-18.061-1.9-27.964.064a14.713,14.713,0,0,0-6.813,3.235,2.125,2.125,0,0,1-2.638.134,4.919,4.919,0,0,0-5.888,0,2.121,2.121,0,0,1-2.634-.138,14.666,14.666,0,0,0-6.78-3.223c-9.912-1.969-21.84-.882-28-.071a3.659,3.659,0,0,1-4.136-3.63V73.437A3.662,3.662,0,0,1,9.636,69.81c.814-.114,1.765-.238,2.827-.362v45.608a.731.731,0,0,0,.859.721c4.837-.866,28.785-4.575,37.653,5.005,8.868-9.581,32.816-5.871,37.653-5.005a.731.731,0,0,0,.859-.721V69.448c1.062.124,2.012.248,2.827.362A3.662,3.662,0,0,1,95.469,73.437Z" transform="translate(-6.48 -69.448)" fill="#fc5d3d"/>
            </g>
            <g id="Group_271" data-name="Group 271" transform="translate(5.983)">
              <path id="Path_2075" data-name="Path 2075" d="M61.332,56.255c-9.041-9.771-33.755-5.722-37.914-4.958a.73.73,0,0,0-.6.72v50.6a.731.731,0,0,0,.859.721c4.837-.866,28.785-4.575,37.653,5.005,8.868-9.581,32.816-5.871,37.653-5.005a.731.731,0,0,0,.859-.721v-50.6a.73.73,0,0,0-.6-.72C95.087,50.534,70.373,46.484,61.332,56.255Z" transform="translate(-22.82 -49.818)" fill="#efefef"/>
            </g>
            <g id="Group_272" data-name="Group 272" transform="translate(9.095 4.084)">
              <path id="Path_2076" data-name="Path 2076" d="M66.2,110.871c-7.389-5.132-19.154-5.435-28.163-4.733a.915.915,0,0,1-.142-1.825c9.269-.722,21.029-.371,28.827,4.7,8.865-5.769,23.067-5.527,33.569-4.223V61.886a.915.915,0,1,1,1.831,0v43.949a.916.916,0,0,1-1.038.907c-10.36-1.4-25.221-1.856-33.84,4.129A.914.914,0,0,1,66.2,110.871Zm-34.869-4.914a.915.915,0,0,1,.785-1.03c.651-.088,1.353-.176,2.1-.261a.915.915,0,0,1,.208,1.819c-.734.084-1.425.171-2.064.257a.915.915,0,0,1-1.03-.785Z" transform="translate(-31.32 -60.971)" fill="#fff"/>
            </g>
            <g id="Group_273" data-name="Group 273" transform="translate(29.647 17.191)">
              <path id="Path_2077" data-name="Path 2077" d="M102.3,96.769v23.414l-9.174,3.371,1.752-9.937L87.449,105.2l10.261.137Z" transform="translate(-87.449 -96.769)" fill="#f0c020"/>
            </g>
            <g id="Group_274" data-name="Group 274" transform="translate(44.494 17.191)">
              <path id="Path_2078" data-name="Path 2078" d="M128,96.769v23.414l9.174,3.371-1.752-9.937,7.426-8.414-10.261.137Z" transform="translate(-128 -96.769)" fill="#f0c020"/>
            </g>
          </g>
        </g>
        <g id="Group_276" data-name="Group 276" transform="translate(74.291 4.99)">
          <path id="Path_2079" data-name="Path 2079" d="M203.055,10.757c-1.349-.446-2.741-.835-3.523-4.2-.72,3.1-1.874,3.659-3.523,4.2,2.69.889,3.1,2.361,3.523,4.2C200.269,11.783,201.488,11.274,203.055,10.757Z" transform="translate(-196.008 -6.553)" fill="#f0c020"/>
        </g>
        <g id="Group_277" data-name="Group 277" transform="translate(85.622 9.195)">
          <path id="Path_2080" data-name="Path 2080" d="M234,22.24c-1.349-.446-2.741-.835-3.523-4.2-.72,3.1-1.874,3.659-3.523,4.2,2.69.889,3.1,2.361,3.523,4.2C231.215,23.266,232.434,22.757,234,22.24Z" transform="translate(-226.954 -18.036)" fill="#f0c020"/>
        </g>
        <g id="Group_281" data-name="Group 281" transform="translate(3.98 4.088)">
          <g id="Group_280" data-name="Group 280" transform="translate(0 0)">
            <g id="Group_278" data-name="Group 278" transform="translate(17.401 81.428)">
              <path id="Path_2081" data-name="Path 2081" d="M58.551,230.683c-1.349-.446-2.741-.835-3.523-4.2-.72,3.1-1.874,3.659-3.523,4.2,2.69.889,3.1,2.361,3.523,4.2C55.765,231.71,56.984,231.2,58.551,230.683Z" transform="translate(-51.504 -226.479)" fill="#f0c020"/>
            </g>
            <g id="Group_279" data-name="Group 279">
              <path id="Path_2082" data-name="Path 2082" d="M165.733,80.672h-8.608a.915.915,0,0,0-.717.346l-6.54,8.231a.915.915,0,1,0,1.433,1.139l6.266-7.885h8.166a.915.915,0,1,0,0-1.831Z" transform="translate(-96.325 -52.631)"/>
              <path id="Path_2083" data-name="Path 2083" d="M206.078,82.5a.915.915,0,0,0,0-1.831h-2.891a.915.915,0,1,0,0,1.831Z" transform="translate(-129.668 -52.631)"/>
              <path id="Path_2084" data-name="Path 2084" d="M183.465,93.763a.915.915,0,0,0,.915.915h9.777a.915.915,0,1,0,0-1.831H184.38A.915.915,0,0,0,183.465,93.763Z" transform="translate(-117.747 -60.349)"/>
              <path id="Path_2085" data-name="Path 2085" d="M175.228,143a.915.915,0,0,0-.915-.915H170.3a.915.915,0,0,0-.566.2l-6.175,4.858a.915.915,0,1,0,1.132,1.439l5.926-4.662h3.7A.915.915,0,0,0,175.228,143Z" transform="translate(-104.905 -91.557)"/>
              <path id="Path_2086" data-name="Path 2086" d="M205.333,142.085h-3.321a.915.915,0,1,0,0,1.831h3.321a.915.915,0,1,0,0-1.831Z" transform="translate(-128.923 -91.557)"/>
              <path id="Path_2087" data-name="Path 2087" d="M184.38,155.932h9.777a.915.915,0,1,0,0-1.831H184.38a.915.915,0,1,0,0,1.831Z" transform="translate(-117.747 -99.174)"/>
              <path id="Path_2088" data-name="Path 2088" d="M70.3,147.139l-6.175-4.858a.914.914,0,0,0-.566-.2H59.542a.915.915,0,1,0,0,1.831h3.7l5.926,4.662a.915.915,0,1,0,1.132-1.439Z" transform="translate(-38.618 -91.557)"/>
              <path id="Path_2089" data-name="Path 2089" d="M38.415,143.916h4.053a.915.915,0,1,0,0-1.831H38.415a.915.915,0,0,0,0,1.831Z" transform="translate(-25.227 -91.557)"/>
              <path id="Path_2090" data-name="Path 2090" d="M48.925,154.1H38.415a.915.915,0,0,0,0,1.831H48.925a.915.915,0,0,0,0-1.831Z" transform="translate(-25.227 -99.174)"/>
              <path id="Path_2091" data-name="Path 2091" d="M48.113,76.091H56.6a.915.915,0,0,0,0-1.831h-8.49a.915.915,0,0,0,0,1.831Z" transform="translate(-31.374 -48.567)"/>
              <path id="Path_2092" data-name="Path 2092" d="M38.415,88.591H54.007a.915.915,0,1,0,0-1.831H38.415a.915.915,0,1,0,0,1.831Z" transform="translate(-25.227 -56.49)"/>
              <path id="Path_2093" data-name="Path 2093" d="M38.415,99.408H54.007a.915.915,0,1,0,0-1.831H38.415a.915.915,0,1,0,0,1.831Z" transform="translate(-25.227 -63.346)"/>
              <path id="Path_2094" data-name="Path 2094" d="M195.912,203.715a.914.914,0,0,0,.1-1.823,102.772,102.772,0,0,0-14.763-.564.916.916,0,0,0,.08,1.831,105.045,105.045,0,0,1,14.588.557Z" transform="translate(-115.783 -129.064)"/>
              <path id="Path_2095" data-name="Path 2095" d="M171.309,204.009a.916.916,0,1,0-.908-.82A.913.913,0,0,0,171.309,204.009Z" transform="translate(-109.462 -129.647)"/>
              <path id="Path_2096" data-name="Path 2096" d="M137.327,209.571c1.432-1.9,4.383-3.321,8.535-4.119a.915.915,0,0,0-.344-1.8h-.008c-4.694.93-7.847,2.5-9.637,4.8a.915.915,0,0,0,1.454,1.113Z" transform="translate(-87.461 -130.573)"/>
              <path id="Path_2097" data-name="Path 2097" d="M64.984,208.064a.915.915,0,1,0,1.452-1.115c-4.965-6.465-20.922-6.055-29.99-5.235a.915.915,0,1,0,.164,1.823C43.61,202.905,60.387,202.08,64.984,208.064Z" transform="translate(-24.03 -129.066)"/>
              <path id="Path_2098" data-name="Path 2098" d="M90.856,54.857c-.655-.093-1.342-.18-2.039-.265v-4.18a1.645,1.645,0,0,0-1.347-1.618A95.682,95.682,0,0,0,72.5,47.311h-.015a.914.914,0,0,0-.018,1.827,94.339,94.339,0,0,1,14.521,1.428V100.79c-10.661-1.87-28.136-2.949-36.681,3.86V90.131l7.943,2.919a.916.916,0,0,0,1.217-1.018l-1.675-9.5,7.134-8.084a.916.916,0,0,0-.7-1.521l-9.7.13-4.215-7.877V55.033c3.714-3.816,10.15-5.173,14.95-5.632a.916.916,0,0,0-.176-1.823c-5.523.549-11.668,1.986-15.689,5.778-8.269-7.747-27.023-6.6-38.079-4.562a1.645,1.645,0,0,0-1.348,1.618v4.18c-.7.085-1.384.172-2.039.265A4.581,4.581,0,0,0,3.98,59.39V85.72a.915.915,0,1,0,1.831,0V59.39a2.761,2.761,0,0,1,2.369-2.72c.581-.079,1.179-.157,1.783-.233V101.01a1.648,1.648,0,0,0,1.926,1.622c.366,0,27.641-5.335,36.827,4.727a.92.92,0,0,0,1.347,0c7.181-7.865,26.268-6.616,36.816-4.727a1.651,1.651,0,0,0,1.937-1.622V56.435c.6.075,1.2.152,1.783.234a2.761,2.761,0,0,1,2.369,2.72v47.226a2.748,2.748,0,0,1-3.1,2.72c-8.752-1.146-19.538-1.656-28.263.077a15.671,15.671,0,0,0-7.227,3.434,1.216,1.216,0,0,1-1.494.1,5.831,5.831,0,0,0-6.986,0,1.208,1.208,0,0,1-1.49-.1,15.59,15.59,0,0,0-7.2-3.424c-8.67-1.727-19.536-1.239-28.3-.081a2.752,2.752,0,0,1-3.1-2.724V93.043a.915.915,0,0,0-1.831,0v13.573a4.579,4.579,0,0,0,5.17,4.537c8.585-1.126,19.177-1.631,27.7.062a13.915,13.915,0,0,1,6.367,3.021,3.032,3.032,0,0,0,3.775.176,4,4,0,0,1,4.789,0,3.041,3.041,0,0,0,3.778-.168,13.772,13.772,0,0,1,6.4-3.035c8.483-1.681,19.063-1.183,27.67-.055a4.576,4.576,0,0,0,5.17-4.537V59.39a4.581,4.581,0,0,0-3.944-4.533Zm-48.2,26.79-6.059-6.866,8.2.109a.929.929,0,0,0,.819-.483l2.865-5.352V88.18l-7.081,2.6,1.476-8.37a.913.913,0,0,0-.215-.765Zm11.335-6.757,8.2-.109-6.059,6.866a.915.915,0,0,0-.215.765l1.476,8.37-7.081-2.6V69.055l2.865,5.352a.933.933,0,0,0,.819.483Zm-42.2,25.9V50.566c10.4-1.885,29.317-3.121,36.681,4.46v10.15l-4.216,7.877-9.7-.13a.915.915,0,0,0-.7,1.521l7.134,8.084-1.676,9.5a.916.916,0,0,0,1.217,1.018l7.943-2.919v14.52c-8.553-6.814-25.974-5.734-36.681-3.861Z" transform="translate(-3.98 -31.47)"/>
              <circle id="Ellipse_14" data-name="Ellipse 14" cx="0.915" cy="0.915" r="0.915" transform="translate(0 56.996)"/>
              <path id="Path_2099" data-name="Path 2099" d="M179.518,49.261a.916.916,0,0,0-.033-1.831h-.033a.916.916,0,1,0,.066,1.831Z" transform="translate(-114.643 -31.56)"/>
              <path id="Path_2100" data-name="Path 2100" d="M194.16,10.054c2.277.752,2.534,1.864,2.925,3.548a.906.906,0,0,0,1.764,0c.648-2.8,1.6-3.112,2.925-3.548a.906.906,0,0,0,0-1.72c-1.27-.418-2.261-.689-2.925-3.548a.906.906,0,0,0-1.764,0c-.649,2.8-1.555,3.1-2.926,3.549A.906.906,0,0,0,194.16,10.054Zm3.811-2.418A4.619,4.619,0,0,0,199.325,9.2a4.481,4.481,0,0,0-1.34,1.511,4.7,4.7,0,0,0-1.418-1.5,4.494,4.494,0,0,0,1.4-1.579Z" transform="translate(-124.133 -4.088)"/>
              <path id="Path_2101" data-name="Path 2101" d="M225.105,21.538c2.277.752,2.534,1.864,2.925,3.548a.906.906,0,0,0,1.764,0c.648-2.8,1.6-3.112,2.925-3.548a.906.906,0,0,0,0-1.72c-1.27-.418-2.261-.689-2.926-3.548a.906.906,0,0,0-1.764,0c-.649,2.8-1.555,3.1-2.926,3.549A.906.906,0,0,0,225.105,21.538Zm3.811-2.418a4.619,4.619,0,0,0,1.354,1.567,4.481,4.481,0,0,0-1.34,1.511,4.7,4.7,0,0,0-1.418-1.5A4.49,4.49,0,0,0,228.916,19.12Z" transform="translate(-143.748 -11.367)"/>
              <path id="Path_2102" data-name="Path 2102" d="M57.271,228.261c-1.27-.418-2.261-.689-2.925-3.548a.906.906,0,0,0-1.764,0c-.649,2.8-1.555,3.1-2.926,3.549a.906.906,0,0,0,0,1.72c2.277.752,2.534,1.864,2.925,3.548a.906.906,0,0,0,1.764,0c.648-2.8,1.6-3.112,2.925-3.548a.907.907,0,0,0,0-1.72Zm-3.789,2.38a4.7,4.7,0,0,0-1.418-1.5,4.487,4.487,0,0,0,1.4-1.579,4.619,4.619,0,0,0,1.354,1.567,4.477,4.477,0,0,0-1.34,1.511Z" transform="translate(-32.539 -143.489)"/>
            </g>
          </g>
        </g>
      </g>
    </g>
  </g>
</svg>
