<svg xmlns="http://www.w3.org/2000/svg" width="48" height="48" viewBox="0 0 48 48"><path d="M16.515 8.031a14.03 14.03 0 0 1 1.608-.831A6.002 6.002 0 0 1 24 0a6.002 6.002 0 0 1 5.877 7.2C35.238 9.489 39 14.805 39 21v4.038c1.887 1.422 3 3.126 3 4.962 0 .924-.357 1.8-.879 2.637L16.515 8.031zm25.332 38.061L1.908 6.153 6.15 1.908 46.089 41.85l-4.242 4.242zM9 25.038V21c0-1.083.153-2.127.372-3.144L29.97 38.454A34.096 34.096 0 0 1 24 39c-9.939 0-18-4.029-18-9 0-1.836 1.113-3.54 3-4.962zM24 42c2.082 0 4.056-.198 5.952-.48.012.162.048.315.048.48 0 3.312-2.688 6-6 6s-6-2.688-6-6c0-.165.036-.318.048-.48 1.899.282 3.87.48 5.952.48z"/></svg>