<svg xmlns="http://www.w3.org/2000/svg" width="16.729" height="19.858" viewBox="0 0 16.729 19.858">
  <path id="notification" d="M17.022,16.216h0c-2.393-2.079-3.419-4.769-3.432-8.995a4.9,4.9,0,0,0-1.448-3.442,4.761,4.761,0,0,0-1.318-.925V2.027a2.026,2.026,0,0,0-4.053,0V2.9A4.743,4.743,0,0,0,4.132,7.142a15.107,15.107,0,0,1-.823,5.393A9.048,9.048,0,0,1,.7,16.215a.593.593,0,0,0,.388,1.041H5.828a2.819,2.819,0,0,0,5.621,0h5.184a.593.593,0,0,0,.389-1.04ZM7.937,2.027a.86.86,0,0,1,1.72,0v.457a4.632,4.632,0,0,0-.837-.07,4.7,4.7,0,0,0-.883.091Zm.7,16.665A1.656,1.656,0,0,1,7,17.256h3.278A1.656,1.656,0,0,1,8.639,18.692Zm-6.148-2.6A9.991,9.991,0,0,0,4.4,12.951a16.227,16.227,0,0,0,.9-5.809A3.573,3.573,0,0,1,8.831,3.58a3.479,3.479,0,0,1,2.491,1.028,3.723,3.723,0,0,1,1.1,2.617,16.071,16.071,0,0,0,.911,5.753,10.01,10.01,0,0,0,1.9,3.112Zm0,0" transform="translate(-0.497 0)" fill="#c6e4fb"/>
</svg>
