<svg xmlns="http://www.w3.org/2000/svg" width="20" height="20" viewBox="0 0 20 20">
  <g id="pie-chart" transform="translate(-0.001)">
    <g id="Group_183" data-name="Group 183" transform="translate(11.533 4.159)">
      <g id="Group_182" data-name="Group 182">
        <path id="Path_2009" data-name="Path 2009" d="M300.887,106.344a.583.583,0,0,0-.86-.118l-5.7,4.841a.583.583,0,0,0,.195,1l7.1,2.345a.583.583,0,0,0,.753-.433,10.012,10.012,0,0,0,.215-2.063A9.9,9.9,0,0,0,300.887,106.344Zm.46,6.747-5.471-1.807,4.392-3.731a8.741,8.741,0,0,1,1.158,4.362A8.858,8.858,0,0,1,301.346,113.091Z" transform="translate(-294.123 -106.088)" fill="#c6e4fb"/>
      </g>
    </g>
    <g id="Group_185" data-name="Group 185" transform="translate(5.099)">
      <g id="Group_184" data-name="Group 184">
        <path id="Path_2010" data-name="Path 2010" d="M140.34,2.713a9.952,9.952,0,0,0-11.47-1.565.583.583,0,0,0-.21.842l4.578,6.757a.583.583,0,0,0,.86.117l6.219-5.284a.583.583,0,0,0,.023-.868Zm-6.5,4.842L130,1.9a8.789,8.789,0,0,1,9.044,1.234Z" transform="translate(-128.56)" fill="#c6e4fb"/>
      </g>
    </g>
    <g id="Group_187" data-name="Group 187" transform="translate(0.001 2.237)">
      <g id="Group_186" data-name="Group 186" transform="translate(0)">
        <path id="Path_2011" data-name="Path 2011" d="M19.1,69.005a.586.586,0,0,0-.361-.321L10.625,66.16a2.056,2.056,0,0,1-1.081-.8h0L4.38,57.822a.586.586,0,0,0-.864-.115A10,10,0,0,0,9.988,75.33H10a10,10,0,0,0,9.1-5.841A.587.587,0,0,0,19.1,69.005ZM10,74.157H9.99a8.834,8.834,0,0,1-6.2-15.115l4.782,6.982h0a3.233,3.233,0,0,0,1.7,1.255L17.732,69.6A8.859,8.859,0,0,1,10,74.157Z" transform="translate(-0.001 -57.567)" fill="#c6e4fb"/>
      </g>
    </g>
  </g>
</svg>
